<svg width="40" height="40" viewBox="0 0 40 40" fill="none" xmlns="http://www.w3.org/2000/svg">
<path d="M10.833 15.8333C10.833 10.7707 14.9371 6.66666 19.9997 6.66666C25.0623 6.66666 29.1663 10.7707 29.1663 15.8333V26.6667C29.1663 29.0237 29.1663 30.2022 28.4342 30.9345C27.7018 31.6667 26.5233 31.6667 24.1663 31.6667H15.833C13.476 31.6667 12.2975 31.6667 11.5652 30.9345C10.833 30.2022 10.833 29.0237 10.833 26.6667V15.8333Z" stroke="#EF7E20" stroke-width="2.5"/>
<path d="M33.333 18.3333V28.3333" stroke="#EF7E20" stroke-width="2.5" stroke-linecap="round" stroke-linejoin="round"/>
<path d="M25 31.6667V36.6667" stroke="#EF7E20" stroke-width="2.5" stroke-linecap="round" stroke-linejoin="round"/>
<path d="M15 31.6667V36.6667" stroke="#EF7E20" stroke-width="2.5" stroke-linecap="round" stroke-linejoin="round"/>
<path d="M6.66699 18.3333V28.3333" stroke="#EF7E20" stroke-width="2.5" stroke-linecap="round" stroke-linejoin="round"/>
<path d="M16.667 6.66668L14.167 3.33334M23.3337 6.66668L25.8337 3.33334" stroke="#EF7E20" stroke-width="2.5" stroke-linecap="round" stroke-linejoin="round"/>
<path d="M10.833 16.6667H29.1663" stroke="#EF7E20" stroke-width="2.5" stroke-linecap="round" stroke-linejoin="round"/>
</svg>
