<svg width="40" height="40" viewBox="0 0 40 40" fill="none" xmlns="http://www.w3.org/2000/svg">
<path d="M20 9.58332C20 6.24999 22.5 2.91666 25.8333 2.91666C25.8333 6.24999 23.3333 9.58332 20 9.58332Z" stroke="#EF7E20" stroke-width="2.5" stroke-linejoin="round"/>
<path d="M20.8337 13.4834C19.9755 13.4834 19.3115 13.2108 18.5693 12.9061C17.6297 12.5204 16.5649 12.0833 14.8226 12.0833C11.7042 12.0833 6.66699 14.5824 6.66699 21.2492C6.66699 29.0027 11.8415 37.0833 15.1748 37.0833C16.2908 37.0833 17.2962 36.6452 18.257 36.2265C19.1362 35.8432 19.9783 35.4762 20.8337 35.4762C21.689 35.4762 22.5312 35.8432 23.4103 36.2265C24.3712 36.6452 25.3765 37.0833 26.4925 37.0833C28.8135 37.0833 31.5958 33.1653 33.3337 28.168C30.6325 27.0337 28.897 24.3633 28.897 21.25C28.897 18.535 30.3397 16.733 32.5003 15.4167C30.8337 12.9167 28.356 12.0833 26.5748 12.0833C24.8325 12.0833 23.7677 12.5204 22.828 12.9061C22.086 13.2108 21.6918 13.4834 20.8337 13.4834Z" stroke="#EF7E20" stroke-width="2.5" stroke-linejoin="round"/>
</svg>
