<svg width="35" height="35" viewBox="0 0 35 35" fill="none" xmlns="http://www.w3.org/2000/svg">
<path d="M23.3328 11.6667C23.3328 13.2138 22.7182 14.6975 21.6242 15.7915C20.5303 16.8854 19.0465 17.5 17.4994 17.5C15.9523 17.5 14.4686 16.8854 13.3747 15.7915C12.2807 14.6975 11.6661 13.2138 11.6661 11.6667M5.29788 10.7937L4.27705 23.0437C4.05775 25.6753 3.9481 26.9911 4.39294 28.0061C4.78377 28.8979 5.46094 29.6339 6.31721 30.0974C7.29179 30.625 8.61215 30.625 11.2529 30.625H23.746C26.3867 30.625 27.7071 30.625 28.6817 30.0974C29.5379 29.6339 30.2151 28.8979 30.6059 28.0061C31.0508 26.9911 30.9411 25.6753 30.7218 23.0437L29.701 10.7937C29.5123 8.52943 29.418 7.3973 28.9165 6.54042C28.475 5.78585 27.8175 5.18088 27.0289 4.80353C26.1333 4.375 24.9973 4.375 22.7252 4.375L12.2737 4.375C10.0016 4.375 8.86555 4.375 7.96998 4.80352C7.18136 5.18088 6.52387 5.78585 6.08233 6.54041C5.58092 7.3973 5.48657 8.52943 5.29788 10.7937Z" stroke="#2B2B29" stroke-width="2" stroke-linecap="round" stroke-linejoin="round"/>
</svg>
