<svg width="27" height="27" viewBox="0 0 27 27" fill="none" xmlns="http://www.w3.org/2000/svg">
<path d="M7.39977 17.4168C5.80815 18.3645 1.63503 20.2996 4.17675 22.7212C5.41835 23.904 6.80118 24.75 8.53973 24.75H18.4602C20.1988 24.75 21.5817 23.904 22.8232 22.7212C25.3649 20.2996 21.1919 18.3645 19.6002 17.4168C15.8679 15.1944 11.1321 15.1944 7.39977 17.4168Z" stroke="white" stroke-width="1.5" stroke-linecap="round" stroke-linejoin="round"/>
<path d="M18.5625 7.3125C18.5625 10.1084 16.296 12.375 13.5 12.375C10.7041 12.375 8.4375 10.1084 8.4375 7.3125C8.4375 4.51656 10.7041 2.25 13.5 2.25C16.296 2.25 18.5625 4.51656 18.5625 7.3125Z" stroke="white" stroke-width="1.5"/>
</svg>
